{
  "accessors": [
    {
      "bufferView": 2,
      "componentType": 5126,
      "count": 2228,
      "max": [
        3.049938440322876,
        4.216926574707031,
        3.5151591300964355
      ],
      "min": [
        -3.0499391555786133,
        -0.34623149037361145,
        -3.515160322189331
      ],
      "type": "VEC3"
    },
    {
      "bufferView": 2,
      "byteOffset": 26736,
      "componentType": 5126,
      "count": 2228,
      "max": [
        1.0,
        0.9999842643737793,
        1.0
      ],
      "min": [
        -0.998997688293457,
        -0.9999842643737793,
        -1.0
      ],
      "type": "VEC3"
    },
    {
      "bufferView": 1,
      "componentType": 5126,
      "count": 2228,
      "max": [
        0.9852372407913208,
        0.9807131290435791
      ],
      "min": [
        0.051647085696458817,
        0.041470758616924286
      ],
      "type": "VEC2"
    },
    {
      "bufferView": 1,
      "byteOffset": 17824,
      "componentType": 5126,
      "count": 2228,
      "max": [
        0.9530724883079529,
        0.9785054922103882
      ],
      "min": [
        0.04743921756744385,
        0.009513121098279953
      ],
      "type": "VEC2"
    },
    {
      "bufferView": 0,
      "componentType": 5125,
      "count": 8022,
      "type": "SCALAR"
    },
    {
      "bufferView": 2,
      "byteOffset": 53472,
      "componentType": 5126,
      "count": 4,
      "max": [
        6.398292541503906,
        -0.3905673921108246,
        6.398292541503906
      ],
      "min": [
        -6.398292064666748,
        -0.3905673921108246,
        -6.398292541503906
      ],
      "type": "VEC3"
    },
    {
      "bufferView": 2,
      "byteOffset": 53520,
      "componentType": 5126,
      "count": 4,
      "max": [
        0.0,
        1.0,
        0.0
      ],
      "min": [
        0.0,
        1.0,
        0.0
      ],
      "type": "VEC3"
    },
    {
      "bufferView": 1,
      "byteOffset": 35648,
      "componentType": 5126,
      "count": 4,
      "max": [
        1.0,
        1.0
      ],
      "min": [
        0.0,
        0.0
      ],
      "type": "VEC2"
    },
    {
      "bufferView": 1,
      "byteOffset": 35680,
      "componentType": 5126,
      "count": 4,
      "max": [
        1.0,
        1.0
      ],
      "min": [
        0.0,
        0.0
      ],
      "type": "VEC2"
    },
    {
      "bufferView": 0,
      "byteOffset": 32088,
      "componentType": 5125,
      "count": 6,
      "type": "SCALAR"
    }
  ],
  "asset": {
    "extras": {
      "author": "Matthew Slater (https://sketchfab.com/Mattslater)",
      "license": "CC-BY-4.0 (http://creativecommons.org/licenses/by/4.0/)",
      "source": "https://sketchfab.com/3d-models/treasure-island-model-d39e1b51978d463987bb624cac470e05",
      "title": "Treasure Island Model"
    },
    "generator": "Sketchfab-12.78.0",
    "version": "2.0"
  },
  "bufferViews": [
    {
      "buffer": 0,
      "byteLength": 32112,
      "name": "floatBufferViews",
      "target": 34963
    },
    {
      "buffer": 0,
      "byteLength": 35712,
      "byteOffset": 32112,
      "byteStride": 8,
      "name": "floatBufferViews",
      "target": 34962
    },
    {
      "buffer": 0,
      "byteLength": 53568,
      "byteOffset": 67824,
      "byteStride": 12,
      "name": "floatBufferViews",
      "target": 34962
    }
  ],
  "buffers": [
    {
      "byteLength": 121392,
      "uri": "scene.bin"
    }
  ],
  "images": [
    {
      "uri": "textures/lambert1_baseColor.png"
    },
    {
      "uri": "textures/lambert2_baseColor.png"
    },
    {
      "uri": "textures/lambert2_metallicRoughness.png"
    }
  ],
  "materials": [
    {
      "doubleSided": true,
      "name": "lambert1",
      "pbrMetallicRoughness": {
        "baseColorTexture": {
          "index": 0
        },
        "metallicFactor": 0.0,
        "roughnessFactor": 0.37796944396085813
      }
    },
    {
      "alphaCutoff": 0.3172758374253706,
      "alphaMode": "MASK",
      "doubleSided": true,
      "name": "lambert2",
      "pbrMetallicRoughness": {
        "baseColorTexture": {
          "index": 1
        },
        "metallicFactor": 0.0,
        "metallicRoughnessTexture": {
          "index": 2
        },
        "roughnessFactor": 0.0
      }
    }
  ],
  "meshes": [
    {
      "name": "SM_Treasure_Island1_lambert1_0",
      "primitives": [
        {
          "attributes": {
            "NORMAL": 1,
            "POSITION": 0,
            "TEXCOORD_0": 2,
            "TEXCOORD_1": 3
          },
          "indices": 4,
          "material": 0,
          "mode": 4
        }
      ]
    },
    {
      "name": "pPlane1_lambert2_0",
      "primitives": [
        {
          "attributes": {
            "NORMAL": 6,
            "POSITION": 5,
            "TEXCOORD_0": 7,
            "TEXCOORD_1": 8
          },
          "indices": 9,
          "material": 1,
          "mode": 4
        }
      ]
    }
  ],
  "nodes": [
    {
      "children": [
        1
      ],
      "matrix": [
        1.0,
        0.0,
        0.0,
        0.0,
        0.0,
        2.220446049250313e-16,
        -1.0,
        0.0,
        0.0,
        1.0,
        2.220446049250313e-16,
        0.0,
        0.0,
        0.0,
        0.0,
        1.0
      ],
      "name": "Sketchfab_model"
    },
    {
      "children": [
        2
      ],
      "matrix": [
        0.009999999776482582,
        0.0,
        0.0,
        0.0,
        0.0,
        0.0,
        0.009999999776482582,
        0.0,
        0.0,
        -0.009999999776482582,
        0.0,
        0.0,
        0.0,
        0.0,
        0.0,
        1.0
      ],
      "name": "fec7173582024fb0a9999862ecaebd97.fbx"
    },
    {
      "children": [
        3
      ],
      "name": "RootNode"
    },
    {
      "children": [
        4,
        6
      ],
      "name": "SM_Treasure_Island"
    },
    {
      "children": [
        5
      ],
      "name": "SM_Treasure_Island1"
    },
    {
      "mesh": 0,
      "name": "SM_Treasure_Island1_lambert1_0"
    },
    {
      "children": [
        7
      ],
      "name": "pPlane1"
    },
    {
      "mesh": 1,
      "name": "pPlane1_lambert2_0"
    }
  ],
  "samplers": [
    {
      "magFilter": 9729,
      "minFilter": 9987,
      "wrapS": 10497,
      "wrapT": 10497
    }
  ],
  "scene": 0,
  "scenes": [
    {
      "name": "Sketchfab_Scene",
      "nodes": [
        0
      ]
    }
  ],
  "textures": [
    {
      "sampler": 0,
      "source": 0
    },
    {
      "sampler": 0,
      "source": 1
    },
    {
      "sampler": 0,
      "source": 2
    }
  ]
}
